# xmcd CD database file
#
# Track frame offsets:
#	188
#	14288
#	28675
#	42935
#	56825
#	69473
#	84175
#	98210
#	112973
#	126578
#	138048
#	153263
#	166475
#	179628
#	194220
#	208865
#	223608
#	239425
#	253065
#	259885
#	274453
#	286725
#	299980
#	315405
#	329090
#
# Disc length: 4581 seconds
#
# Revision: 0
# Processed by: cddbd v1.4PL0 Copyright (c) Steve Scherf et al.
# Submitted via: CDex 1.50Beta7
#
DISCID=9111e319
DTITLE=Frank Sinatra - Frank Sinatra Collection
DYEAR=1994
DGENRE=Jazz
TTITLE0=Begin The Beguine
TTITLE1=Day By Day
TTITLE2=Time After Time
TTITLE3=Night And Day
TTITLE4=Be Careful It'S My Heart
TTITLE5=Fools Rush In
TTITLE6=I'Ll Be Seeing You
TTITLE7=Everything Happens To Me
TTITLE8=A Sinner Kissed An Angel
TTITLE9=Blue Skies
TTITLE10=From The Bottom Of My Heart
TTITLE11=How About You
TTITLE12=I Think Of You
TTITLE13=Imagination
TTITLE14=It'S Always You
TTITLE15=Oh Look At Me Now
TTITLE16=Ol' Man River
TTITLE17=Our Love Affair
TTITLE18=Somebody Loves Me
TTITLE19=Stardust
TTITLE20=Street Of Dreams
TTITLE21=The Lamplighter'S Serenade
TTITLE22=The Song Is You
TTITLE23=Whispering
TTITLE24=This Is The Beginning Of The End
EXTD=YEAR: 1994
EXTT0=
EXTT1=
EXTT2=
EXTT3=
EXTT4=
EXTT5=
EXTT6=
EXTT7=
EXTT8=
EXTT9=
EXTT10=
EXTT11=
EXTT12=
EXTT13=
EXTT14=
EXTT15=
EXTT16=
EXTT17=
EXTT18=
EXTT19=
EXTT20=
EXTT21=
EXTT22=
EXTT23=
EXTT24=
PLAYORDER=
